{
  "accessors": [
    {
      "name": "Part2_1_0_positions",
      "componentType": 5126,
      "count": 100,
      "min": [
        -250,
        -400,
        -360
      ],
      "max": [
        250,
        400,
        150
      ],
      "type": "VEC3",
      "bufferView": 0,
      "byteOffset": 0
    },
    {
      "name": "Part2_1_0_indices",
      "componentType": 5123,
      "count": 636,
      "min": [
        0
      ],
      "max": [
        99
      ],
      "type": "SCALAR",
      "bufferView": 1,
      "byteOffset": 0
    }
  ],
  "asset": {
    "generator": "obj2gltf",
    "version": "2.0"
  },
  "buffers": [
    {
      "name": "robot_base",
      "byteLength": 2472,
      "uri": "robot_base.bin"
    }
  ],
  "bufferViews": [
    {
      "name": "bufferView_0",
      "buffer": 0,
      "byteLength": 1200,
      "byteOffset": 0,
      "byteStride": 12,
      "target": 34962
    },
    {
      "name": "bufferView_1",
      "buffer": 0,
      "byteLength": 1272,
      "byteOffset": 1200,
      "target": 34963
    }
  ],
  "materials": [
    {
      "name": "Part2Material0",
      "pbrMetallicRoughness": {
        "baseColorFactor": [
          0.506983,
          0.531564,
          0.55,
          1
        ],
        "metallicFactor": 0,
        "roughnessFactor": 0.98
      },
      "emissiveFactor": [
        0,
        0,
        0
      ],
      "alphaMode": "OPAQUE",
      "doubleSided": false
    }
  ],
  "meshes": [
    {
      "name": "Part2_1",
      "primitives": [
        {
          "attributes": {
            "POSITION": 0
          },
          "indices": 1,
          "material": 0,
          "mode": 4
        }
      ]
    }
  ],
  "nodes": [
    {
      "name": "Part2",
      "mesh": 0
    }
  ],
  "scene": 0,
  "scenes": [
    {
      "nodes": [
        0
      ]
    }
  ]
}
